# xmcd CD database file generated by Grip 3.0.7
# 
# Track frame offsets:
#       150
#       14685
#       30325
#       45617
#       60150
#       75142
#       88870
#       101630
#       115387
#       130967
#       148325
#       162465
#       176080
#       194852
#       210750
#       227172
#       242312
#       258520
#       269162
#       284000
#       296717
#       310552
#       326192
# 
# Disc length: 4582 seconds
# 
# Revision: 4
# Processed by: cddbd v1.5.1PL0 Copyright (c) Steve Scherf et al.
# Submitted via: Grip 3.0.7
# 
DISCID=5711e417
DTITLE=Asleep At The Wheel - 23 Country Classics
DYEAR=1999
DGENRE=Country
TTITLE0=The Letter That Johnny Walker Read
TTITLE1=Cherokee Boogie
TTITLE2=My Baby Thinks She's A Train
TTITLE3=Bump Bounce Boogie
TTITLE4=Lay Down Sally
TTITLE5=Rockin' Rodeo
TTITLE6=Bring It On Down To My House (Dance Version)
TTITLE7=I Wonder If You Feel The Way I Do (featuring Merle Haggard)
TTITLE8=Still Water Runs The Deepest (Dance Version - featuring Willie Nelson)
TTITLE9=Old Fashioned Love (Dance Version featuring Suzy Bogguss)
TTITLE10=Billy Dale (Dance Version - featuring Dolly Parton)
TTITLE11=Nothin' Takes The Place Of You
TTITLE12=Let Me Go Home Whiskey
TTITLE13=The Trouble With Loving Today
TTITLE14=Take Me Back To Tulsa
TTITLE15=Drivin' Nails In My Coffin
TTITLE16=The Wheel Keeps On Rollin'
TTITLE17=If I Could
TTITLE18=She Came To Dance
TTITLE19=Route 66
TTITLE20=Miles And Miles Of Texas
TTITLE21=Texas, Me And You
TTITLE22=Don't Forget The Trains
EXTD=
EXTT0=
EXTT1=
EXTT2=
EXTT3=
EXTT4=
EXTT5=
EXTT6=
EXTT7=
EXTT8=
EXTT9=
EXTT10=
EXTT11=
EXTT12=
EXTT13=
EXTT14=
EXTT15=
EXTT16=
EXTT17=
EXTT18=
EXTT19=
EXTT20=
EXTT21=
EXTT22=
PLAYORDER=
